<?xml version="1.0" encoding="iso-8859-1"?>
<!-- Generator: Adobe Illustrator 15.1.0, SVG Export Plug-In . SVG Version: 6.00 Build 0)  -->
<!DOCTYPE svg PUBLIC "-//W3C//DTD SVG 1.1//EN" "http://www.w3.org/Graphics/SVG/1.1/DTD/svg11.dtd">
<svg version="1.1" id="Layer_1" xmlns="http://www.w3.org/2000/svg" xmlns:xlink="http://www.w3.org/1999/xlink" x="0px" y="0px"
	 width="140px" height="140px" viewBox="0 0 140 140" style="enable-background:new 0 0 140 140;" xml:space="preserve">
<g>
	<path style="fill:#F2F2F2;" d="M70,130c-33.084,0-60-26.917-60-60s26.916-60,60-60s60,26.917,60,60S103.084,130,70,130z"/>
	<circle style="fill:#F5DD9E;" cx="70" cy="70" r="58.064"/>
	<path style="fill:#555152;" d="M100.898,53.548c-8.904-0.025-18.264,2.297-24.264,8.71v-1.936c0-0.26-0.016-0.514-0.041-0.766
		c0.016-0.067,0.041-0.13,0.041-0.202V48.708c0-0.535-0.466-0.968-1-0.968c-0.535,0-1,0.433-1,0.968v6.774
		c-1-1.209-3.064-1.936-5-1.936c-1.936,0-3,0.726-5,1.936v-6.774c0-0.535-0.466-0.968-1-0.968s-1,0.433-1,0.968v10.646
		c0,0.072,0.026,0.135,0.041,0.202c-0.025,0.251-0.041,0.505-0.041,0.766v1.936c-5-6.413-14.994-8.735-23.898-8.71
		c-6.793,0.019-12.93,1.637-16.304,4.839c8.695,0,17.493,7.742,17.493,14.515c10.645,0,12.618,7.742,12.618,14.517
		c5.806-1.937,17.438,5.71,17.438,12.581c0-6.871,11.622-14.516,17.428-12.581c0-6.774,1.939-14.517,12.584-14.517
		c0-6.773,8.692-14.515,17.388-14.515C114.009,55.185,107.691,53.567,100.898,53.548z"/>
	<path style="fill:#35302E;" d="M69.635,100c0-6.871,11.795-14.516,17.602-12.581c0-6.774,2.027-14.517,12.672-14.517
		c0-6.773,8.771-14.516,17.465-14.516c-3.373-3.202-9.704-4.82-16.498-4.839c-8.904-0.025-18.24,2.297-24.24,8.71v-1.936
		c0-0.26-0.016-0.514-0.041-0.766c0.016-0.067,0.041-0.13,0.041-0.202V48.708c0-0.535-0.466-0.968-1-0.968c-0.535,0-1,0.433-1,0.968
		v6.774c-1-1.209-3-1.936-5-1.936V100L69.635,100z"/>
</g>
</svg>
