<?xml version="1.0" encoding="iso-8859-1"?>
<!-- Generator: Adobe Illustrator 15.1.0, SVG Export Plug-In . SVG Version: 6.00 Build 0)  -->
<!DOCTYPE svg PUBLIC "-//W3C//DTD SVG 1.1//EN" "http://www.w3.org/Graphics/SVG/1.1/DTD/svg11.dtd">
<svg version="1.1" id="Layer_1" xmlns="http://www.w3.org/2000/svg" xmlns:xlink="http://www.w3.org/1999/xlink" x="0px" y="0px"
	 width="140px" height="140px" viewBox="0 0 140 140" style="enable-background:new 0 0 140 140;" xml:space="preserve">
<g>
	<path style="fill:#F2F2F2;" d="M70,130c-33.084,0-60-26.916-60-60s26.916-60,60-60s60,26.916,60,60S103.084,130,70,130z"/>
	<circle style="fill:#B7B49E;" cx="70" cy="70" r="58.064"/>
	<g>
		<path style="fill:#754C24;" d="M70.635,25.483c-0.535,0-1,0.434-1,0.968v12.581v13.549v12.086h2V52.581V39.032V26.451
			C71.635,25.917,71.17,25.483,70.635,25.483z"/>
		<path style="fill:#EFFBCD;" d="M86.127,101.535l-7.115-30.722c-0.102-3.459-3.637-7.549-8.02-7.549
			c-4.385,0-7.92,4.09-8.021,7.549l-7.157,30.902c-0.064,0.288,0.002,0.473,0.187,0.702c0.185,0.231,0.463,0.248,0.758,0.248h28.47
			c0.007,0,0.016,0,0.021,0c0.533,0,0.968-0.314,0.968-0.85C86.214,101.675,86.184,101.656,86.127,101.535z"/>
		<path style="fill:#DBE6BB;" d="M86.127,101.535l-7.299-30.722c-0.103-3.455-3.193-7.543-8.193-7.549v39.402h14.592
			c0.007,0,0.016,0,0.021,0c0.534,0,0.968-0.314,0.968-0.85C86.214,101.675,86.184,101.656,86.127,101.535z"/>
		<path style="fill:#C2CCA7;" d="M62.971,70.513l-0.26,1.154h2.924v31h2v-31h6v31h2v-31h3.637l-0.26-1.154
			c-0.007-0.269-0.043,0.154-0.09-0.846h-15.86C63.014,70.667,62.979,70.244,62.971,70.513z"/>
	</g>
</g>
</svg>
