<?xml version="1.0" encoding="iso-8859-1"?>
<!-- Generator: Adobe Illustrator 15.1.0, SVG Export Plug-In . SVG Version: 6.00 Build 0)  -->
<!DOCTYPE svg PUBLIC "-//W3C//DTD SVG 1.1//EN" "http://www.w3.org/Graphics/SVG/1.1/DTD/svg11.dtd">
<svg version="1.1" id="Layer_1" xmlns="http://www.w3.org/2000/svg" xmlns:xlink="http://www.w3.org/1999/xlink" x="0px" y="0px"
	 width="140px" height="140px" viewBox="0 0 140 140" style="enable-background:new 0 0 140 140;" xml:space="preserve">
<g>
	<path style="fill:#F2F2F2;" d="M70,130c-33.084,0-60-26.916-60-60s26.916-60,60-60s60,26.916,60,60S103.084,130,70,130z"/>
	<circle style="fill:#78642F;" cx="70" cy="70" r="58.064"/>
	<g>
		<path style="fill:#FFEE99;" d="M109.909,84.276c-8.548,0-14.274-5.403-14.274-13.14v-0.34c0-7.734,5.729-13.139,14.274-13.139
			c0.534,0,0.726,0.433,0.726,0.968v24.682C110.635,83.844,110.444,84.276,109.909,84.276z"/>
		<path style="fill:#F2E291;" d="M95.635,71v0.138c0,7.735,5.729,13.14,14.274,13.14c0.534,0,0.726-0.434,0.726-0.969V71H95.635z"/>
		<path style="fill:#FFEE99;" d="M32.36,84.276c-0.534,0-0.726-0.434-0.726-0.969V58.626c0-0.535,0.19-0.968,0.726-0.968
			c8.548,0,14.274,5.402,14.274,13.139v0.34C46.635,78.873,40.906,84.276,32.36,84.276z"/>
		<path style="fill:#F2E291;" d="M31.635,71v12.309c0,0.535,0.19,0.969,0.726,0.969c8.548,0,14.274-5.403,14.274-13.14V71H31.635z"
			/>
		<path style="fill:#FFE97A;" d="M84.692,84H57.766c-7.148,0-12.75-5.945-12.75-13c0-6.938,5.72-13,12.75-13h26.927
			c7.03,0,12.75,6.063,12.75,13C97.442,78.055,91.842,84,84.692,84z"/>
		<path style="fill:#FFF9D5;" d="M50.769,68.275c-0.534,0-0.968-0.578-0.968-1.113c0-3.443,3.519-6.162,6.664-6.162h5.438
			c0.535,0,0.969,0.465,0.969,1s-0.434,1-0.969,1h-5.438c-2.188,0-4.729,1.896-4.729,4.195
			C51.736,67.73,51.304,68.275,50.769,68.275z"/>
		<path style="fill:#F2DD74;" d="M57.766,84h26.927c7.149,0,12.75-6,12.75-13H45.016C45.016,78,50.616,84,57.766,84z"/>
		<path style="fill:#E6D26E;" d="M84.692,58H71.635v26h13.058c7.149,0,12.75-5.945,12.75-13C97.442,64.063,91.723,58,84.692,58z"/>
		<path style="fill:#D9C668;" d="M71.635,84h13.058c7.149,0,12.75-6,12.75-13H71.635V84z"/>
	</g>
</g>
</svg>
