<?xml version="1.0" encoding="iso-8859-1"?>
<!-- Generator: Adobe Illustrator 15.1.0, SVG Export Plug-In . SVG Version: 6.00 Build 0)  -->
<!DOCTYPE svg PUBLIC "-//W3C//DTD SVG 1.1//EN" "http://www.w3.org/Graphics/SVG/1.1/DTD/svg11.dtd">
<svg version="1.1" id="Layer_1" xmlns="http://www.w3.org/2000/svg" xmlns:xlink="http://www.w3.org/1999/xlink" x="0px" y="0px"
	 width="140px" height="140px" viewBox="0 0 140 140" style="enable-background:new 0 0 140 140;" xml:space="preserve">
<g>
	<path style="fill:#F2F2F2;" d="M70,130c-33.084,0-60-26.916-60-60s26.916-60,60-60s60,26.916,60,60S103.084,130,70,130z"/>
	<circle style="fill:#B7B49E;" cx="70" cy="70" r="58.064"/>
	<g>
		<path style="fill:#C4482E;" d="M98.875,93.987c6.771-6.983,10.939-16.405,10.939-26.768c0-4.308-0.718-8.721-2.072-12.395
			c-0.142-0.379-0.502-0.826-0.907-0.826H33.164c-0.404,0-0.766,0.447-0.907,0.826c-1.354,3.674-2.071,7.989-2.071,12.297
			c0,10.361,4.168,19.832,10.939,26.815l-10.651,10.539c-0.381,0.376-0.385,1.002-0.009,1.382c0.189,0.19,0.439,0.295,0.688,0.295
			c0.246,0,0.491-0.091,0.68-0.276l10.674-10.536c7.152,6.691,16.838,10.817,27.494,10.817s20.342-4.124,27.494-10.815
			l10.672,10.537c0.188,0.188,0.435,0.279,0.681,0.279c0.249,0,0.499-0.098,0.688-0.288c0.375-0.38,0.371-0.993-0.01-1.369
			L98.875,93.987z"/>
		<g>
			<path style="fill:#FFF9D5;" d="M49.213,39.743c0.378-0.378,0.378-0.99,0-1.368c-0.379-0.379-0.991-0.379-1.369,0
				c-2.16,2.161-1.054,4.426-0.164,6.246c0.913,1.871,1.371,2.988,0.164,4.195c-0.378,0.378-0.378,0.989,0,1.367
				c0.189,0.189,0.438,0.284,0.686,0.284c0.246,0,0.494-0.095,0.685-0.284c2.241-2.241,1.063-4.651,0.205-6.411
				C48.506,41.902,48.08,40.874,49.213,39.743z"/>
			<path style="fill:#FFF9D5;" d="M63.137,39.743c0.378-0.378,0.378-0.99,0-1.368c-0.378-0.379-0.99-0.379-1.368,0
				c-2.161,2.161-1.008,4.522-0.165,6.247c0.913,1.87,1.372,2.987,0.165,4.194c-0.378,0.378-0.378,0.989,0,1.367
				c0.188,0.189,0.437,0.284,0.685,0.284s0.496-0.095,0.685-0.284c2.242-2.241,1.065-4.651,0.205-6.411
				C62.429,41.903,62.006,40.874,63.137,39.743z"/>
			<path style="fill:#FFF9D5;" d="M56.176,32.779c0.378-0.379,0.378-0.991,0-1.369s-0.99-0.378-1.368,0
				c-2.163,2.162-1.009,4.525-0.166,6.251c0.914,1.87,1.372,2.987,0.166,4.194c-0.378,0.378-0.378,0.989,0,1.367
				c0.188,0.188,0.437,0.283,0.685,0.283s0.494-0.095,0.685-0.283c2.242-2.242,1.063-4.651,0.205-6.412
				C55.467,34.941,55.043,33.912,56.176,32.779z"/>
			<path style="fill:#FFF9D5;" d="M77.061,39.743c0.379-0.378,0.379-0.99,0-1.368c-0.378-0.379-0.99-0.379-1.367,0
				c-2.164,2.161-1.01,4.522-0.166,6.247c0.914,1.87,1.371,2.987,0.166,4.194c-0.379,0.378-0.379,0.989,0,1.367
				c0.188,0.189,0.437,0.284,0.684,0.284c0.248,0,0.494-0.095,0.685-0.284c2.242-2.241,1.065-4.651,0.205-6.411
				C76.352,41.903,75.929,40.875,77.061,39.743z"/>
			<path style="fill:#FFF9D5;" d="M70.098,32.779c0.378-0.379,0.378-0.992,0-1.369c-0.378-0.378-0.99-0.378-1.369,0
				c-2.16,2.162-1.054,4.429-0.164,6.25c0.913,1.871,1.371,2.988,0.164,4.195c-0.378,0.378-0.378,0.989,0,1.367
				c0.189,0.188,0.438,0.283,0.686,0.283c0.248,0,0.494-0.095,0.685-0.283c2.242-2.242,1.063-4.651,0.206-6.412
				C69.391,34.94,68.966,33.912,70.098,32.779z"/>
			<path style="fill:#FFF9D5;" d="M84.021,32.779c0.378-0.379,0.378-0.992,0-1.369c-0.378-0.378-0.989-0.378-1.368,0
				c-2.16,2.162-1.054,4.429-0.164,6.25c0.914,1.871,1.371,2.988,0.164,4.195c-0.377,0.378-0.377,0.989,0,1.367
				c0.189,0.188,0.438,0.283,0.686,0.283c0.247,0,0.494-0.095,0.684-0.283c2.243-2.242,1.065-4.651,0.206-6.412
				C83.314,34.94,82.89,33.912,84.021,32.779z"/>
			<path style="fill:#FFF9D5;" d="M91.189,43.772c-0.914-1.87-1.339-2.898-0.207-4.029c0.379-0.378,0.379-0.99,0-1.368
				c-0.377-0.379-0.99-0.379-1.369,0c-2.16,2.161-1.006,4.522-0.164,6.247c0.914,1.87,1.371,2.987,0.164,4.194
				c-0.377,0.378-0.377,0.989,0,1.367c0.189,0.189,0.438,0.284,0.686,0.284c0.248,0,0.495-0.095,0.686-0.284
				C93.225,47.942,92.047,45.532,91.189,43.772z"/>
		</g>
		<path style="fill:#A63D27;" d="M98.875,93.987c6.771-6.983,10.939-16.405,10.939-26.768c0-4.308-0.718-8.721-2.072-12.395
			c-0.142-0.379-0.502-0.826-0.907-0.826h-37.2v52.16c11,0,20.523-4.125,27.677-10.816l10.765,10.537
			c0.188,0.188,0.479,0.279,0.726,0.279c0.249,0,0.522-0.097,0.712-0.288c0.376-0.38,0.383-0.993,0.002-1.369L98.875,93.987z"/>
	</g>
</g>
</svg>
