<?xml version="1.0" encoding="iso-8859-1"?>
<!-- Generator: Adobe Illustrator 15.1.0, SVG Export Plug-In . SVG Version: 6.00 Build 0)  -->
<!DOCTYPE svg PUBLIC "-//W3C//DTD SVG 1.1//EN" "http://www.w3.org/Graphics/SVG/1.1/DTD/svg11.dtd">
<svg version="1.1" id="Layer_1" xmlns="http://www.w3.org/2000/svg" xmlns:xlink="http://www.w3.org/1999/xlink" x="0px" y="0px"
	 width="140px" height="140px" viewBox="0 0 140 140" style="enable-background:new 0 0 140 140;" xml:space="preserve">
<g>
	<path style="fill:#F2F2F2;" d="M70,130c-33.084,0-60-26.917-60-60s26.916-60,60-60s60,26.917,60,60S103.084,130,70,130z"/>
	<circle style="fill:#D8DCE3;" cx="70" cy="70" r="58.064"/>
	<g>
		<path style="fill:#96463C;" d="M79.294,62.667H62.142c-0.453,0-0.846-0.519-0.943-0.961l-4.924-22.177
			c-0.016-0.069-0.022-0.191-0.022-0.261c0-4.274,3.367-7.648,7.667-7.648c2.912,0,5.396,1.525,6.696,3.846
			c1.3-2.321,3.783-3.865,6.695-3.865c4.3,0,7.667,3.345,7.667,7.619c0,0.068-0.008,0.134-0.021,0.2L80.24,61.698
			C80.145,62.144,79.75,62.667,79.294,62.667z"/>
		<path style="fill:#7A3931;" d="M77.32,31.594c-2.911,0-5.686,1.538-6.686,3.858v27.215h8.659c0.456,0,0.851-0.524,0.944-0.97
			l4.717-22.177c0.015-0.066,0.026-0.186,0.026-0.253C84.982,34.993,81.621,31.594,77.32,31.594z"/>
		<path style="fill:#EE5D4A;" d="M94.616,108.667H46.611c-0.533,0-0.968-0.411-0.968-0.946c0-9.724,9.392-37.654,15.7-46.818
			c0.181-0.262,0.479-0.236,0.797-0.236h17.152c0.317,0,0.616-0.015,0.797,0.247c6.227,9.043,15.493,37.049,15.493,46.893
			C95.584,108.342,95.15,108.667,94.616,108.667z"/>
		<path style="fill:#D45342;" d="M80.091,60.914c-0.181-0.262-0.479-0.247-0.797-0.247h-8.659v48h23.981
			c0.533,0,0.968-0.325,0.968-0.86C95.584,97.962,86.317,69.957,80.091,60.914z"/>
	</g>
</g>
</svg>
