<?xml version="1.0" encoding="iso-8859-1"?>
<!-- Generator: Adobe Illustrator 15.1.0, SVG Export Plug-In . SVG Version: 6.00 Build 0)  -->
<!DOCTYPE svg PUBLIC "-//W3C//DTD SVG 1.1//EN" "http://www.w3.org/Graphics/SVG/1.1/DTD/svg11.dtd">
<svg version="1.1" id="Layer_1" xmlns="http://www.w3.org/2000/svg" xmlns:xlink="http://www.w3.org/1999/xlink" x="0px" y="0px"
	 width="140px" height="140px" viewBox="0 0 140 140" style="enable-background:new 0 0 140 140;" xml:space="preserve">
<g>
	<path style="fill:#F2F2F2;" d="M70,130c-33.084,0-60-26.916-60-60s26.916-60,60-60c33.083,0,60,26.916,60,60S103.084,130,70,130z"
		/>
	<circle style="fill:#263A44;" cx="70" cy="70" r="58.064"/>
	<g>
		<path style="fill:#E6E6E6;" d="M70.697,105.691c-17.933,0-32.521-14.914-32.521-33.246c0-18.333,14.589-33.247,32.521-33.247
			s32.521,14.914,32.521,33.247C103.218,90.777,88.63,105.691,70.697,105.691z"/>
		<path style="fill:#CCCCCC;" d="M82.713,41.56c6.027,6.039,9.775,14.444,9.775,23.732c0,18.333-14.588,33.248-32.521,33.248
			c-4.244,0-8.296-0.844-12.016-2.362c5.869,5.881,13.898,9.516,22.746,9.516c17.933,0,32.521-14.915,32.521-33.247
			C103.218,58.449,94.714,46.457,82.713,41.56z"/>
		<ellipse style="fill:#CCCCCC;" cx="49.058" cy="70.742" rx="3.329" ry="3.405"/>
		<ellipse style="fill:#CCCCCC;" cx="59.046" cy="57.121" rx="4.994" ry="5.108"/>
		<path style="fill:#FFCF47;" d="M37.463,48.955c-0.206,0-0.413-0.07-0.581-0.215L32,44.558c-0.37-0.316-0.418-0.87-0.11-1.246
			l6.415-7.838c0.151-0.185,0.372-0.302,0.612-0.323c0.238-0.024,0.478,0.055,0.662,0.211l5.102,4.377
			c0.181,0.155,0.292,0.375,0.309,0.613c0.018,0.237-0.059,0.472-0.216,0.651l-6.634,7.643
			C37.961,48.85,37.712,48.955,37.463,48.955z"/>
		<path style="fill:#CCCCCC;" d="M72.361,84.363c0,5.639-4.473,10.216-9.986,10.216c-5.514,0-9.988-4.577-9.988-10.216
			c0-5.642,4.474-10.217,9.988-10.217C67.889,74.146,72.361,78.723,72.361,84.363z"/>
		<path style="fill:#B3B3B3;" d="M46.623,71.636c0-1.881,1.49-3.404,3.329-3.404c0.679,0,1.308,0.208,1.834,0.565
			c-0.601-0.881-1.596-1.46-2.728-1.46c-1.838,0-3.329,1.523-3.329,3.405c0,1.188,0.595,2.23,1.496,2.84
			C46.848,73.03,46.623,72.361,46.623,71.636z"/>
		<path style="fill:#B3B3B3;" d="M54.946,58.015c0-2.819,2.238-5.107,4.995-5.107c1.135,0,2.178,0.392,3.018,1.046
			c-0.914-1.18-2.326-1.94-3.912-1.94c-2.757,0-4.995,2.288-4.995,5.107c0,1.66,0.778,3.129,1.976,4.062
			C55.352,60.311,54.946,59.212,54.946,58.015z"/>
		<path style="fill:#B3B3B3;" d="M53.281,85.257c0-5.64,4.475-10.216,9.988-10.216c2.478,0,4.742,0.93,6.488,2.46
			c-1.827-2.056-4.453-3.354-7.382-3.354c-5.514,0-9.988,4.576-9.988,10.217c0,3.104,1.361,5.881,3.499,7.755
			C54.274,90.304,53.281,87.9,53.281,85.257z"/>
		<path style="fill:#8C6239;" d="M44.065,54.61c-0.206,0-0.413-0.071-0.581-0.214L32,44.558c-0.376-0.321-0.419-0.886-0.098-1.261
			c0.323-0.376,0.887-0.418,1.261-0.097l11.484,9.837c0.376,0.321,0.419,0.887,0.098,1.261C44.567,54.505,44.316,54.61,44.065,54.61
			z"/>
	</g>
</g>
</svg>
