<?xml version="1.0" encoding="iso-8859-1"?>
<!-- Generator: Adobe Illustrator 15.1.0, SVG Export Plug-In . SVG Version: 6.00 Build 0)  -->
<!DOCTYPE svg PUBLIC "-//W3C//DTD SVG 1.1//EN" "http://www.w3.org/Graphics/SVG/1.1/DTD/svg11.dtd">
<svg version="1.1" id="Layer_1" xmlns="http://www.w3.org/2000/svg" xmlns:xlink="http://www.w3.org/1999/xlink" x="0px" y="0px"
	 width="140px" height="140px" viewBox="0 0 140 140" style="enable-background:new 0 0 140 140;" xml:space="preserve">
<g>
	<path style="fill:#F2F2F2;" d="M70,130c-33.084,0-60-26.916-60-60c0-33.083,26.916-60,60-60s60,26.917,60,60
		C130,103.084,103.084,130,70,130z"/>
	<circle style="fill:#234150;" cx="70" cy="70" r="58.064"/>
	<g>
		<path style="fill:#6BB575;" d="M91.508,97.876c-0.133,0-0.268-0.027-0.396-0.085c-0.486-0.219-0.705-0.791-0.486-1.278
			l8.686-19.39c0.219-0.488,0.791-0.705,1.279-0.488c0.486,0.22,0.706,0.792,0.486,1.28l-8.685,19.389
			C92.23,97.663,91.878,97.876,91.508,97.876z"/>
		<path style="fill:#77C982;" d="M91.51,97.876c-0.299,0-0.593-0.138-0.781-0.396c-0.316-0.432-0.223-1.037,0.208-1.353
			l12.009-8.788c0.435-0.316,1.039-0.222,1.354,0.209c0.314,0.432,0.223,1.037-0.209,1.354l-12.01,8.787
			C91.906,97.815,91.708,97.876,91.51,97.876z"/>
		<path style="fill:#42994E;" d="M48.615,97.876c-0.436,0-0.832-0.296-0.938-0.736l-3.886-15.818
			c-0.129-0.521,0.188-1.045,0.708-1.17c0.518-0.135,1.044,0.188,1.171,0.707l3.886,15.818c0.128,0.521-0.188,1.045-0.709,1.17
			C48.77,97.867,48.691,97.876,48.615,97.876z"/>
		<path style="fill:#56C264;" d="M48.615,97.876c-0.198,0-0.398-0.061-0.571-0.188l-7.771-5.686
			c-0.432-0.314-0.523-0.921-0.209-1.354c0.314-0.431,0.92-0.524,1.354-0.209l7.77,5.686c0.432,0.314,0.525,0.921,0.209,1.354
			C49.208,97.738,48.914,97.876,48.615,97.876z"/>
		<path style="fill:#CCCCCC;" d="M90.322,99.333H49.678c-0.535,0-1.043-0.732-1.043-1.27V53.406c0-10.43,9.46-19.242,21-19.242
			s21,8.778,21,19.169v44.73C90.635,98.601,90.857,99.333,90.322,99.333z"/>
		<path style="fill:#B3B3B3;" d="M69.635,34.165v65.168h20.688c0.535,0,0.313-0.732,0.313-1.27v-44.73
			C90.635,42.942,81.635,34.165,69.635,34.165z"/>
		<path style="fill:#999999;" d="M69.672,34.165c-0.65,0-1.521,0.032-2.161,0.087c10.674,0.914,19.124,9.278,19.124,19.081v44.73
			c0,0.535,0.352,1.27-0.184,1.27h3.871c0.535,0,0.313-0.732,0.313-1.27v-44.73C90.635,42.942,81.213,34.165,69.672,34.165z"/>
		<path style="fill:#666666;" d="M109.678,99.333H34.193c-0.535,0-0.968-0.465-0.968-1s0.433-1,0.968-1h75.484
			c0.534,0,0.968,0.465,0.968,1S110.212,99.333,109.678,99.333z"/>
		<path style="fill:#F2F2F2;" d="M79.082,54.333h-7.447v-7.287c0-0.535-0.465-0.968-1-0.968c-0.534,0-1,0.433-1,0.968v7.287h-7.973
			c-0.534,0-0.967,0.465-0.967,1s0.433,1,0.967,1h7.973v18.776c0,0.535,0.466,0.969,1,0.969c0.535,0,1-0.434,1-0.969V56.333h7.447
			c0.535,0,0.968-0.465,0.968-1S79.617,54.333,79.082,54.333z"/>
		<path style="fill:#808080;" d="M78.71,55.333h-8.075v-8.559c0-0.535-0.465-0.968-1-0.968s-1,0.433-1,0.968v8.559h-7.346
			c-0.533,0-0.967-0.035-0.967,0.5s0.434,0.5,0.967,0.5h7.346v18.505c0,0.535,0.465,0.969,1,0.969s1-0.434,1-0.969V56.333h8.075
			c0.534,0,0.968,0.035,0.968-0.5S79.244,55.333,78.71,55.333z"/>
	</g>
</g>
</svg>
