<?xml version="1.0" encoding="iso-8859-1"?>
<!-- Generator: Adobe Illustrator 15.1.0, SVG Export Plug-In . SVG Version: 6.00 Build 0)  -->
<!DOCTYPE svg PUBLIC "-//W3C//DTD SVG 1.1//EN" "http://www.w3.org/Graphics/SVG/1.1/DTD/svg11.dtd">
<svg version="1.1" id="Layer_1" xmlns="http://www.w3.org/2000/svg" xmlns:xlink="http://www.w3.org/1999/xlink" x="0px" y="0px"
	 width="140px" height="140px" viewBox="0 0 140 140" style="enable-background:new 0 0 140 140;" xml:space="preserve">
<g>
	<path style="fill:#F2F2F2;" d="M70,130c-33.084,0-60-26.916-60-60c0-33.083,26.916-60,60-60s60,26.917,60,60
		C130,103.084,103.084,130,70,130z"/>
	<circle style="fill:#E2574C;" cx="70" cy="70" r="58.064"/>
	<g>
		<path style="fill:#B3B3B3;" d="M85.483,81.333H54.516c-0.534,0-0.881-1.121-0.881-1.655V50.995c0-6.874,7.236-12.904,16-12.904
			s16,6.007,16,12.854v28.732C85.635,80.212,86.019,81.333,85.483,81.333z"/>
		<path style="fill:#999999;" d="M69.635,38.091v43.242h15.849c0.535,0,0.151-1.121,0.151-1.655V50.945
			C85.635,44.098,78.635,38.091,69.635,38.091z"/>
		<path style="fill:#808080;" d="M69.592,38.091c-0.325,0-0.381,0.025-0.702,0.042c8.351,0.424,15.745,6.221,15.745,12.812v28.732
			c0,0.534-0.552,1.655-1.086,1.655h1.935c0.535,0,0.151-1.121,0.151-1.655V50.945C85.635,44.098,78.355,38.091,69.592,38.091z"/>
		<path style="fill:#E6E6E6;" d="M63.226,94.333H32.258c-0.535,0-1.623-0.572-1.623-1.107V64.544c0-6.875,7.736-12.904,16.5-12.904
			s16.5,6.006,16.5,12.854v28.731C63.635,93.761,63.761,94.333,63.226,94.333z"/>
		<path style="fill:#CCCCCC;" d="M47.635,51.64v42.693h15.591c0.535,0,0.409-0.572,0.409-1.107V64.494
			C63.635,57.646,55.635,51.64,47.635,51.64z"/>
		<path style="fill:#999999;" d="M47.463,51.64c-0.325,0-0.816,0.025-1.137,0.042c8.35,0.423,15.309,6.22,15.309,12.812v28.731
			c0,0.535,0.19,1.107-0.345,1.107h1.936c0.535,0,0.409-0.572,0.409-1.107V64.494C63.635,57.646,56.227,51.64,47.463,51.64z"/>
		<path style="fill:#808080;" d="M74.839,51.333h-4.204v-4.559c0-0.535-0.465-0.968-1-0.968s-1,0.433-1,0.968v4.559h-3.474
			c-0.535,0-0.969,0.465-0.969,1s0.434,1,0.969,1h3.474v12.795c0,0.535,0.465,0.968,1,0.968s1-0.433,1-0.968V53.333h4.204
			c0.535,0,0.968-0.465,0.968-1S75.374,51.333,74.839,51.333z"/>
		<path style="fill:#E6E6E6;" d="M107.742,94.333H76.774c-0.534,0-1.14-0.572-1.14-1.107V64.544c0-6.875,7.736-12.904,16.5-12.904
			s16.5,6.006,16.5,12.854v28.731C108.635,93.761,108.276,94.333,107.742,94.333z"/>
		<path style="fill:#CCCCCC;" d="M91.635,51.64v42.693h16.107c0.533,0,0.893-0.572,0.893-1.107V64.494
			C108.635,57.646,100.635,51.64,91.635,51.64z"/>
		<path style="fill:#999999;" d="M92.221,51.64c-0.326,0-0.695,0.025-1.017,0.042c8.351,0.423,15.431,6.22,15.431,12.812v28.731
			c0,0.535-0.293,1.107-0.828,1.107h1.937c0.533,0,0.893-0.572,0.893-1.107V64.494C108.635,57.646,100.984,51.64,92.221,51.64z"/>
		<path style="fill:#B3B3B3;" d="M52.581,64.333h-3.946v-4.011c0-0.535-0.465-0.968-1-0.968s-1,0.433-1,0.968v4.011h-3.731
			c-0.534,0-0.968,0.465-0.968,1s0.434,1,0.968,1h3.731V78.71c0,0.534,0.465,0.968,1,0.968s1-0.434,1-0.968V66.333h3.946
			c0.534,0,0.968-0.465,0.968-1S53.115,64.333,52.581,64.333z"/>
		<path style="fill:#B3B3B3;" d="M97.097,64.333h-4.462v-4.011c0-0.535-0.465-0.968-1-0.968c-0.534,0-1,0.433-1,0.968v4.011h-3.216
			c-0.534,0-0.968,0.465-0.968,1s0.434,1,0.968,1h3.216V78.71c0,0.534,0.466,0.968,1,0.968c0.535,0,1-0.434,1-0.968V66.333h4.462
			c0.535,0,0.968-0.465,0.968-1S97.632,64.333,97.097,64.333z"/>
	</g>
</g>
</svg>
