<?xml version="1.0" encoding="iso-8859-1"?>
<!-- Generator: Adobe Illustrator 15.1.0, SVG Export Plug-In . SVG Version: 6.00 Build 0)  -->
<!DOCTYPE svg PUBLIC "-//W3C//DTD SVG 1.1//EN" "http://www.w3.org/Graphics/SVG/1.1/DTD/svg11.dtd">
<svg version="1.1" id="Layer_1" xmlns="http://www.w3.org/2000/svg" xmlns:xlink="http://www.w3.org/1999/xlink" x="0px" y="0px"
	 width="140px" height="140px" viewBox="0 0 140 140" style="enable-background:new 0 0 140 140;" xml:space="preserve">
<g>
	<path style="fill:#F2F2F2;" d="M70,130c-33.084,0-60-26.916-60-60c0-33.083,26.916-60,60-60s60,26.917,60,60
		C130,103.084,103.084,130,70,130z"/>
	<circle style="fill:#1F5A4F;" cx="70" cy="70" r="58.064"/>
	<g>
		<path style="fill:#E6E6D1;" d="M80.308,108.801H60.422c-2.042,0-3.658-0.84-4.8-2.009c-1.156-1.182-1.743-3.046-1.696-5.158
			l-0.258-5.871C45.235,95.315,36,89.031,36,80.242V60.294c0-16.653,18.012-29.095,34-29.095s34,12.442,34,29.095v19.947
			c0,8.789-8.871,15.012-17.303,15.459l0.049,5.834c0.046,2.089-0.51,4.076-1.668,5.258
			C83.936,107.961,82.351,108.801,80.308,108.801z"/>
		<path style="fill:#D9D9C5;" d="M70,31.199v77.602h10.308c2.042,0,3.658-0.84,4.8-2.009c1.156-1.182,1.743-3.046,1.696-5.135
			l-0.108-5.895c8.434-0.447,17.303-6.732,17.303-15.521V60.294C104,43.641,86,31.199,70,31.199z"/>
		<g style="opacity:0.6;">
			<path style="fill:#BEBE87;" d="M88.934,36.664C96.029,41.898,101,49.538,101,58.358v19.948c0,8.788-8.822,15.012-17.256,15.459
				l0.074,5.834c0.045,2.088-0.5,4.045-1.656,5.227c-1.143,1.168-2.715,1.976-4.758,1.976H57.519c-0.848,0-1.618-0.321-2.315-0.526
				c0.13,0.17,0.269,0.475,0.418,0.627c1.143,1.168,2.758,1.899,4.8,1.899h19.886c2.042,0,3.658-0.84,4.8-2.009
				c1.156-1.182,1.743-3.046,1.696-5.135l-0.108-5.895c8.434-0.447,17.303-6.732,17.303-15.521V60.294
				C104,50.312,97.525,41.848,88.934,36.664z"/>
		</g>
		<path style="fill:#BEBE87;" d="M55.849,73.467c-5.336,0-9.677-4.342-9.677-9.677c0-5.336,4.341-9.678,9.677-9.678
			s9.678,4.342,9.678,9.678C65.527,69.125,61.185,73.467,55.849,73.467z"/>
		<path style="opacity:0.6;fill:#BEBE87;enable-background:new    ;" d="M47.14,65.726c0-5.336,4.341-9.678,9.677-9.678
			c3.392,0,6.376,1.758,8.105,4.406c-1.363-3.694-4.91-6.341-9.073-6.341c-5.336,0-9.677,4.342-9.677,9.678
			c0,1.945,0.582,3.753,1.573,5.272C47.36,68.02,47.14,66.899,47.14,65.726z"/>
		<path style="fill:#BEBE87;" d="M86.816,73.467c-5.336,0-9.677-4.342-9.677-9.677c0-5.336,4.341-9.678,9.677-9.678
			s9.678,4.342,9.678,9.678C96.494,69.125,92.152,73.467,86.816,73.467z"/>
		<path style="opacity:0.6;fill:#BEBE87;enable-background:new    ;" d="M78.107,65.726c0-5.336,4.34-9.678,9.676-9.678
			c3.393,0,6.377,1.758,8.105,4.406c-1.363-3.694-4.91-6.341-9.072-6.341c-5.336,0-9.678,4.342-9.678,9.678
			c0,1.945,0.582,3.753,1.573,5.272C78.328,68.02,78.107,66.899,78.107,65.726z"/>
		<path style="fill:#F2F2F2;" d="M53.922,98.801l0.005,2.796c-0.047,2.112,0.54,4.059,1.696,5.239
			c1.143,1.168,2.758,1.965,4.8,1.965h19.886c2.042,0,3.658-0.84,4.801-2.009c1.155-1.182,1.742-2.96,1.695-5.048l0.005-2.943
			H53.922z"/>
		<g>
			<rect x="60" y="98.801" style="fill:#B3B3B3;" width="1" height="10"/>
			<rect x="69" y="98.801" style="fill:#B3B3B3;" width="1" height="10"/>
			<rect x="78" y="98.801" style="fill:#B3B3B3;" width="1" height="10"/>
		</g>
		<polygon style="fill:#BEBE87;" points="53.925,100.801 86.807,100.801 86.81,98.801 53.922,98.801 		"/>
		<path style="fill:#BEBE87;" d="M80.043,98.731c0.968,0,3.871-0.993,3.871-2.955c0-1.961,1.936,2.012,1.936,2.012l-0.968,2.013
			h-2.903L80.043,98.731z"/>
	</g>
</g>
</svg>
