<?xml version="1.0" encoding="iso-8859-1"?>
<!-- Generator: Adobe Illustrator 15.1.0, SVG Export Plug-In . SVG Version: 6.00 Build 0)  -->
<!DOCTYPE svg PUBLIC "-//W3C//DTD SVG 1.1//EN" "http://www.w3.org/Graphics/SVG/1.1/DTD/svg11.dtd">
<svg version="1.1" id="Layer_1" xmlns="http://www.w3.org/2000/svg" xmlns:xlink="http://www.w3.org/1999/xlink" x="0px" y="0px"
	 width="140px" height="140px" viewBox="0 0 140 140" style="enable-background:new 0 0 140 140;" xml:space="preserve">
<g>
	<path style="fill:#F2F2F2;" d="M70,130c-33.084,0-60-26.917-60-60s26.916-60,60-60s60,26.917,60,60S103.084,130,70,130z"/>
	<circle style="fill:#F5DD9E;" cx="70" cy="70" r="58.064"/>
	<g>
		<path style="fill:#333333;" d="M90.351,93H49.974c-0.313,0-0.604-0.2-0.787-0.453c-0.181-0.253-0.229-0.604-0.13-0.898
			l14.13-41.845c0.045-0.134,0.118-0.263,0.217-0.365l20.742-21.716c0.319-0.336,0.831-0.399,1.22-0.151
			c0.39,0.248,0.551,0.737,0.382,1.167l-8.419,21.63l13.939,41.254c0.102,0.296,0.051,0.67-0.131,0.923
			C90.956,92.8,90.663,93,90.351,93z"/>
		<path style="fill:#1A1A1A;" d="M85.007,27.445l-11.136,23.2c0,0,6.845,37.357,7.781,40.533C83.246,91.496,85.145,92,86.706,93
			h3.645c0.313,0,0.605-0.2,0.786-0.453c0.182-0.253,0.231-0.684,0.131-0.979L77.328,50.342l8.419-21.615
			c0.169-0.43,0.008-0.91-0.381-1.158c-0.112-0.071-0.234-0.106-0.357-0.127C85.007,27.441,85.007,27.445,85.007,27.445z"/>
		<polygon style="fill:#603813;" points="51.457,85 88.866,85 86.577,78 53.745,78 		"/>
		<path style="fill:#1A1A1A;" d="M70.161,104.839c-19.177,0-39.815-4.021-39.815-12.889c0-0.535,0.434-0.95,0.968-0.95h77.696
			c0.535,0,0.968,0.415,0.968,0.95C109.978,100.816,89.339,104.839,70.161,104.839z"/>
		<path style="fill:#C7B299;" d="M72.635,76.968c0-0.534-0.434-0.968-0.968-0.968H60.603c-0.534,0-0.968,0.434-0.968,0.968v9.064
			c0,0.534,0.434,0.968,0.968,0.968h11.064c0.534,0,0.968-0.434,0.968-0.968V76.968z M61.635,85v-7h9v3h-1.604
			c-0.534,0-0.968,0.465-0.968,1s0.434,1,0.968,1h1.604v2H61.635z"/>
		<path style="fill:#4D2D0F;" d="M88.866,85l-2.29-7h-7.662c0.469,2,0.914,5,1.308,7H88.866z"/>
		<path style="fill:#0D0D0D;" d="M86.463,103.714c0.708-0.09,1.406-0.114,2.098-0.218c0.166-0.023,0.331-0.012,0.496-0.038
			c0.295-0.045,0.588-0.073,0.88-0.121c0.171-0.028,0.339-0.048,0.508-0.077c0.481-0.082,0.956-0.162,1.428-0.25
			c0.192-0.035,0.387-0.07,0.579-0.107c0.254-0.049,0.505-0.1,0.756-0.15c0.202-0.042,0.4-0.083,0.601-0.126
			c0.24-0.052,0.481-0.103,0.719-0.156c0.374-0.084,0.745-0.171,1.111-0.26c0.211-0.051,0.417-0.104,0.624-0.158
			c0.218-0.055,0.436-0.112,0.648-0.169c0.203-0.054,0.405-0.109,0.604-0.165c0.253-0.071,0.502-0.144,0.749-0.218
			c0.238-0.07,0.475-0.143,0.707-0.215c0.268-0.084,0.531-0.168,0.791-0.255c0.165-0.056,0.328-0.113,0.49-0.169
			c0.229-0.08,0.455-0.161,0.678-0.244c0.145-0.053,0.288-0.105,0.43-0.16c0.331-0.128,0.656-0.258,0.973-0.393
			c0.12-0.049,0.233-0.103,0.352-0.153c0.227-0.099,0.447-0.198,0.664-0.3c0.121-0.058,0.242-0.114,0.361-0.174
			c0.262-0.127,0.518-0.258,0.766-0.392c0.075-0.04,0.149-0.08,0.225-0.121c0.259-0.143,0.508-0.289,0.75-0.438
			c0.094-0.057,0.185-0.114,0.273-0.172c0.197-0.125,0.388-0.252,0.572-0.383c0.072-0.05,0.146-0.1,0.217-0.15
			c0.239-0.174,0.467-0.353,0.683-0.532c0.059-0.048,0.112-0.099,0.168-0.146c0.166-0.146,0.326-0.291,0.478-0.44
			c0.061-0.06,0.12-0.118,0.178-0.179c0.184-0.188,0.356-0.377,0.516-0.573c0.009-0.011,0.02-0.022,0.028-0.034
			c0.159-0.2,0.303-0.404,0.438-0.611c0.039-0.063,0.076-0.123,0.113-0.186c0.103-0.169,0.195-0.341,0.28-0.514
			c0.025-0.053,0.054-0.103,0.076-0.154c0.1-0.221,0.185-0.442,0.256-0.67c0.017-0.053,0.027-0.105,0.043-0.157
			c0.051-0.185,0.093-0.372,0.125-0.562c0.013-0.066,0.023-0.133,0.032-0.2c0.031-0.24,0.053-0.628,0.053-0.875
			c0-0.535-0.433-0.95-0.968-0.95H91.156h-9.502C86.488,92,94.185,95.98,86.463,103.714z"/>
	</g>
</g>
</svg>
