<?xml version="1.0" encoding="iso-8859-1"?>
<!-- Generator: Adobe Illustrator 15.1.0, SVG Export Plug-In . SVG Version: 6.00 Build 0)  -->
<!DOCTYPE svg PUBLIC "-//W3C//DTD SVG 1.1//EN" "http://www.w3.org/Graphics/SVG/1.1/DTD/svg11.dtd">
<svg version="1.1" id="Layer_1" xmlns="http://www.w3.org/2000/svg" xmlns:xlink="http://www.w3.org/1999/xlink" x="0px" y="0px"
	 width="140px" height="140px" viewBox="0 0 140 140" style="enable-background:new 0 0 140 140;" xml:space="preserve">
<g>
	<path style="fill:#F2F2F2;" d="M70,130c-33.084,0-60-26.916-60-60s26.916-60,60-60c33.085,0,60,26.916,60,60S103.085,130,70,130z"
		/>
	<circle style="fill:#E2574C;" cx="70" cy="70" r="58.064"/>
	<g>
		<path style="fill:#2E0000;" d="M90.172,63.517c-0.186-0.189-0.537-0.447-0.537-0.451l0,0v-0.398c0,0-0.285,0-0.287,0H52.635v0.764
			c0-0.283-0.943-0.265-1.285,0.086c-7.255,7.409-11.323,21.84-12.021,32.11c-0.025,0.373,0.159,0.728,0.485,0.909
			c1.288,0.722,8.289,4.398,19.785,6.02c0.046,0.008,0.09-0.125,0.135-0.125c0.402,0,0.746,0.236,0.887-0.764h18.106
			c0,0-0.014,0.227-0.008,0.273c0.07,0.481,0.484,0.896,0.957,0.896c0.047,0,0.094,0.029,0.143,0.022
			c10.723-1.563,19.68-5.189,21.729-6.341c0.326-0.183,0.588-0.527,0.563-0.899C101.41,85.347,97.426,70.926,90.172,63.517z"/>
		<path style="fill:#FFEDFF;" d="M84.516,63.667h-30c-0.535,0-0.881,0.959-0.881,1.494v23.501c0,8.589,6.9,19.08,15.5,19.08
			c8.846,0,15.5-9.983,15.5-18.247V65.161C84.635,64.626,85.051,63.667,84.516,63.667z"/>
		<path style="fill:#F2E0F2;" d="M84.516,64.667H69.635v43.075c8,0,15-9.983,15-18.247V65.161
			C84.635,64.626,85.051,64.667,84.516,64.667z"/>
		<path style="fill:#3B8087;" d="M76.775,74.667h-3.871c-0.535,0-0.969-0.465-0.969-1s0.434-1,0.969-1h3.871
			c0.533,0,0.967,0.465,0.967,1S77.309,74.667,76.775,74.667z"/>
		<path style="fill:#8AE3E1;" d="M74.389,85.667H70c-0.535,0-0.968,0.035-0.968-0.5s0.433-0.5,0.968-0.5h2.605l-3.08-4.824
			c-0.291-0.447-0.164-1.085,0.285-1.376c0.448-0.292,1.047-0.185,1.34,0.267l4.049,6.233c0.193,0.298,0.207,0.28,0.039,0.593
			C75.07,85.871,74.742,85.667,74.389,85.667z"/>
		<path style="fill:#8E9AA6;" d="M69.163,101.821c-4.295,0-7.754-4.452-7.754-7.907c0-0.535,0.434-1.247,0.968-1.247h13.572
			c0.535,0,0.969,0.712,0.969,1.247C76.917,97.369,73.458,101.821,69.163,101.821z"/>
		<path style="fill:#1A1A1A;" d="M106.775,62.667H89.93L78.958,41.8l12.679-9.891c0.376-0.297,0.479-0.754,0.24-1.169
			c-0.237-0.415-0.741-0.56-1.189-0.388L63.219,40.994c-0.22,0.085-0.401-0.022-0.51,0.188L51.426,62.667H32.258
			c-0.534,0-0.967,0.465-0.967,1s0.433,1,0.967,1h19.756h37.327h17.435c0.533,0,0.967-0.465,0.967-1S107.309,62.667,106.775,62.667z
			"/>
		<polygon style="fill:#603813;" points="53.433,58.667 87.92,58.667 83.402,50.667 57.951,50.667 		"/>
		<path style="fill:#C7B299;" d="M75.635,49.635c0-0.534-0.434-0.968-0.968-0.968H62.603c-0.535,0-0.968,0.434-0.968,0.968v11.064
			c0,0.534,0.433,0.968,0.968,0.968h12.064c0.534,0,0.968-0.434,0.968-0.968V49.635z M63.635,58.667v-8h10v3h-2.667
			c-0.535,0-0.968-0.035-0.968,0.5s0.433,0.5,0.968,0.5h2.667v4H63.635z"/>
		<path style="fill:#3B8087;" d="M66.129,74.667h-3.871c-0.534,0-0.967-0.465-0.967-1s0.433-1,0.967-1h3.871
			c0.535,0,0.968,0.465,0.968,1S66.664,74.667,66.129,74.667z"/>
	</g>
</g>
</svg>
