<?xml version="1.0" encoding="iso-8859-1"?>
<!-- Generator: Adobe Illustrator 15.1.0, SVG Export Plug-In . SVG Version: 6.00 Build 0)  -->
<!DOCTYPE svg PUBLIC "-//W3C//DTD SVG 1.1//EN" "http://www.w3.org/Graphics/SVG/1.1/DTD/svg11.dtd">
<svg version="1.1" id="Layer_1" xmlns="http://www.w3.org/2000/svg" xmlns:xlink="http://www.w3.org/1999/xlink" x="0px" y="0px"
	 width="140px" height="140px" viewBox="0 0 140 140" style="enable-background:new 0 0 140 140;" xml:space="preserve">
<g>
	<path style="fill:#F2F2F2;" d="M70,130c-33.084,0-60-26.916-60-60s26.916-60,60-60s60,26.916,60,60S103.084,130,70,130z"/>
	<circle style="fill:#777777;" cx="70" cy="70" r="58.064"/>
	<g>
		<path style="fill:#ADB3A6;" d="M103.635,67.032c0,0.534-0.434,0.968-0.968,0.968h-7.064c-0.534,0-0.968-0.434-0.968-0.968V56.968
			c0-0.534,0.434-0.968,0.968-0.968h7.064c0.534,0,0.968,0.434,0.968,0.968V67.032z"/>
		<path style="fill:#C6CCBE;" d="M43.635,67.032c0,0.534-0.433,0.968-0.968,0.968h-7.064c-0.535,0-0.968-0.434-0.968-0.968V56.968
			c0-0.534,0.433-0.968,0.968-0.968h7.064c0.535,0,0.968,0.434,0.968,0.968V67.032z"/>
		<path style="fill:#F8FFED;" d="M69.135,114.516c-14.831,0-27.5-12.673-27.5-27.673V44.504c0-5.589,5.945-9.504,11.383-9.504
			h34.753c5.371,0,8.863,3.741,8.863,9.504v42.339C96.635,101.843,83.966,114.516,69.135,114.516z"/>
		<path style="fill:#EBF2E0;" d="M87.771,35H68.635v79.516c15,0,28-12.673,28-27.673V44.504C96.635,38.741,93.143,35,87.771,35z"/>
		<path style="fill:#E0EEA9;" d="M89.982,56.139c-2.181,0-4.139-1.151-5.234-2.889c-1.096,1.736-3.036,2.889-5.217,2.889
			c-2.18,0-4.109-1.151-5.207-2.889c-1.096,1.736-3.021,2.889-5.201,2.889c-2.181,0-4.103-1.151-5.199-2.889
			c-1.096,1.736-3.018,2.889-5.198,2.889c-2.18,0-4.101-1.151-5.198-2.889c-1.096,1.736-3.077,2.889-5.257,2.889
			c-3.502,0-6.637-2.918-6.637-6.246v-5.389c0-5.589,5.945-9.504,11.383-9.504h34.753c5.371,0,8.863,3.741,8.863,9.504v5.389
			C96.635,53.221,93.486,56.139,89.982,56.139z"/>
		<path style="fill:#FFCF47;" d="M60.321,65.627c-1.815,0-3.292,1.477-3.292,3.291c0,1.813,1.477,3.29,3.292,3.29
			s3.292-1.477,3.292-3.29C63.612,67.104,62.135,65.627,60.321,65.627z"/>
		<path style="fill:#FFCF47;" d="M77.917,65.627c-1.816,0-3.292,1.477-3.292,3.291c0,1.813,1.476,3.29,3.292,3.29
			c1.813,0,3.292-1.477,3.292-3.29C81.209,67.104,79.732,65.627,77.917,65.627z"/>
		<g>
			<path style="fill:#96998E;" d="M60.321,73.404c2.475,0,4.487-2.013,4.487-4.486s-2.013-4.487-4.487-4.487
				s-4.487,2.014-4.487,4.487S57.846,73.404,60.321,73.404z M60.321,66.366c1.407,0,2.552,1.145,2.552,2.552
				c0,1.406-1.145,2.551-2.552,2.551c-1.407,0-2.552-1.145-2.552-2.551C57.769,67.511,58.913,66.366,60.321,66.366z"/>
			<path style="fill:#96998E;" d="M77.917,73.404c2.475,0,4.487-2.013,4.487-4.486s-2.014-4.487-4.487-4.487
				s-4.487,2.014-4.487,4.487S75.441,73.404,77.917,73.404z M77.917,66.366c1.407,0,2.552,1.145,2.552,2.552
				c0,1.406-1.145,2.551-2.552,2.551s-2.552-1.145-2.552-2.551C75.365,67.511,76.51,66.366,77.917,66.366z"/>
			<path style="fill:#96998E;" d="M65.599,83.961c0.535,0,0.968-0.433,0.968-0.967c0-1.406,1.145-2.551,2.552-2.551
				s2.551,1.145,2.551,2.551c0,0.534,0.433,0.967,0.968,0.967c0.534,0,0.968-0.433,0.968-0.967c0-2.475-2.013-4.486-4.487-4.486
				s-4.487,2.012-4.487,4.486C64.632,83.528,65.065,83.961,65.599,83.961z"/>
			<path style="fill:#96998E;" d="M86.066,98.298c-1.233-1.862-2.432-3.317-5.432-4.412v-3.212c0-0.534,0.034-0.968-0.5-0.968
				s-0.5,0.434-0.5,0.968v2.349c-2-0.636-4-1.093-6-1.378v-0.971c0-0.534,0.034-0.968-0.5-0.968c-0.535,0-0.5,0.434-0.5,0.968v0.725
				c-2-0.099-2.229-0.145-3.2-0.127c-1.785-0.036-3.8,0.121-5.8,0.479v-1.077c0-0.534-0.466-0.968-1-0.968c-0.535,0-1,0.434-1,0.968
				v1.514c-2,0.479-4,1.152-5,2.036v-3.55c0-0.534-0.465-0.968-1-0.968c-0.534,0-1,0.434-1,0.968v4.84
				c-1,0.807-1.97,1.728-2.671,2.784c-0.295,0.446-0.192,1.046,0.253,1.342c0.445,0.295,1.075,0.173,1.37-0.271
				c0.295-0.445,1.048-0.857,1.048-1.252v3.115c0,0.534,0.466,0.968,1,0.968c0.535,0,1-0.434,1-0.968v-4.736
				c1-0.997,3-1.753,5-2.287v3.505c0,0.535,0.465,0.968,1,0.968c0.534,0,1-0.433,1-0.968v-3.979c2-0.392,4.041-0.563,5.8-0.527
				c0.96-0.019,1.2,0.026,3.2,0.132v4.375c0,0.535-0.035,0.968,0.5,0.968c0.534,0,0.5-0.433,0.5-0.968v-4.101
				c2,0.312,4,0.808,6,1.504v6.115c0,0.534-0.034,0.968,0.5,0.968s0.5-0.434,0.5-0.968v-5.125c2,0.874,2.952,1.952,3.818,3.262
				c0.187,0.28,0.617,0.433,0.931,0.433c0.185,0,0.308-0.052,0.472-0.161C86.302,99.344,86.361,98.744,86.066,98.298z"/>
		</g>
		<path style="fill:#D8E6A3;" d="M87.771,35H68.635v21.139h0.242c2.18,0,4.221-1.151,5.316-2.889
			c1.096,1.736,3.076,2.889,5.256,2.889c2.181,0,4.131-1.151,5.228-2.889c1.097,1.736,3.108,2.889,5.29,2.889
			c3.502,0,6.667-2.918,6.667-6.246v-5.389C96.635,38.741,93.143,35,87.771,35z"/>
	</g>
</g>
</svg>
