<?xml version="1.0" encoding="iso-8859-1"?>
<!-- Generator: Adobe Illustrator 15.1.0, SVG Export Plug-In . SVG Version: 6.00 Build 0)  -->
<!DOCTYPE svg PUBLIC "-//W3C//DTD SVG 1.1//EN" "http://www.w3.org/Graphics/SVG/1.1/DTD/svg11.dtd">
<svg version="1.1" id="Layer_1" xmlns="http://www.w3.org/2000/svg" xmlns:xlink="http://www.w3.org/1999/xlink" x="0px" y="0px"
	 width="140px" height="140px" viewBox="0 0 140 140" style="enable-background:new 0 0 140 140;" xml:space="preserve">
<g>
	<path style="fill:#F2F2F2;" d="M70,130c-33.084,0-60-26.916-60-60s26.916-60,60-60c33.085,0,60,26.916,60,60S103.085,130,70,130z"
		/>
	<circle style="fill:#EE9A94;" cx="70" cy="70" r="58.064"/>
	<g>
		<path style="fill:#66472A;" d="M84.857,111H55.682c-0.465,0-0.864-0.508-0.951-0.965L44.072,53.881
			c-0.046-0.24,0.001-0.534,0.132-0.741l13.465-21.521C57.846,31.338,58.155,31,58.487,31h23.564c0.332,0,0.641,0.316,0.818,0.598
			l13.466,21.426c0.131,0.207,0.178,0.491,0.133,0.731l-10.66,56.261C85.721,110.474,85.322,111,84.857,111z"/>
		<path style="fill:#4D3520;" d="M96.335,53.096L82.869,31.598C82.691,31.317,82.384,31,82.052,31H69.635v80h15.223
			c0.465,0,0.863-0.508,0.95-0.965l10.66-56.154C96.513,53.641,96.466,53.303,96.335,53.096z"/>
		<path d="M78.686,55h-7.051v-7.595c0-0.534-0.465-0.968-1-0.968c-0.534,0-1,0.434-1,0.968V55h-7.78c-0.535,0-0.968,0.465-0.968,1
			s0.433,1,0.968,1h7.78v17.334c0,0.535,0.466,0.968,1,0.968c0.535,0,1-0.433,1-0.968V57h7.051c0.533,0,0.967-0.465,0.967-1
			S79.219,55,78.686,55z"/>
	</g>
</g>
</svg>
