<?xml version="1.0" encoding="iso-8859-1"?>
<!-- Generator: Adobe Illustrator 15.1.0, SVG Export Plug-In . SVG Version: 6.00 Build 0)  -->
<!DOCTYPE svg PUBLIC "-//W3C//DTD SVG 1.1//EN" "http://www.w3.org/Graphics/SVG/1.1/DTD/svg11.dtd">
<svg version="1.1" id="Layer_1" xmlns="http://www.w3.org/2000/svg" xmlns:xlink="http://www.w3.org/1999/xlink" x="0px" y="0px"
	 width="140px" height="140px" viewBox="0 0 140 140" style="enable-background:new 0 0 140 140;" xml:space="preserve">
<g>
	<path style="fill:#F2F2F2;" d="M70,130c-33.084,0-60-26.917-60-60s26.916-60,60-60s60,26.917,60,60S103.084,130,70,130z"/>
	<circle style="fill:#8BD1C5;" cx="70" cy="70" r="58.064"/>
	<g>
		<path style="fill:#331211;" d="M106.906,59.539c-0.101,0-0.201-0.015-0.301-0.048c-0.509-0.166-0.451-0.714-0.619-1.221
			c-2.397-7.246-8.221-14.329-12.797-16.288c-0.492-0.212-1.058-0.054-1.253-0.552c-0.192-0.499,0.054-1.059,0.552-1.253
			c4.432-1.72,11.44-5.421,13.858-7.131c0.269-0.19,0.617-0.229,0.922-0.107c0.306,0.123,0.527,0.394,0.589,0.717
			c0.308,1.632,2.922,16.208-0.031,25.217C107.691,59.28,107.313,59.539,106.906,59.539z"/>
		<path style="fill:#4D1B19;" d="M33.164,59.539c-0.407,0-0.786-0.259-0.92-0.666c-2.955-9.017-0.34-23.586-0.03-25.217
			c0.062-0.324,0.282-0.594,0.588-0.717c0.306-0.122,0.651-0.083,0.921,0.107c2.419,1.71,9.428,5.411,13.857,7.131
			c0.498,0.194,0.746,0.754,0.553,1.253c-0.193,0.499-0.734,0.43-1.253,0.552c-3.907,0.922-9.772,9.208-12.796,16.288
			c-0.21,0.491-0.11,1.055-0.618,1.221C33.365,59.523,33.264,59.539,33.164,59.539z"/>
		<path style="fill:#C4482E;" d="M70.167,110.287c-21.757,0-39.457-17.366-39.457-38.71c0-21.344,17.7-38.709,39.457-38.709
			c21.756,0,39.456,17.365,39.456,38.709C109.623,92.921,91.923,110.287,70.167,110.287z"/>
		<path style="fill:#AD4029;" d="M70.635,32.867c21,0,39.455,17.365,39.455,38.709c0,21.344-18.455,38.711-39.455,38.711V32.867z"/>
		<path style="fill:#8E9AA6;" d="M47.783,84.667c4.504,8,12.565,12.931,22.384,12.931c9.817,0,17.88-4.931,22.383-12.931H47.783z"/>
		<path style="fill:#1A1919;" d="M70.167,98.746c-10.573,0-19.153-5.029-23.54-13.796c-0.15-0.3-0.135-0.597,0.042-0.882
			c0.176-0.285,0.487-0.4,0.823-0.4h45.35c0.336,0,0.646,0.115,0.822,0.4c0.178,0.285,0.193,0.611,0.044,0.912
			C89.32,93.746,80.74,98.746,70.167,98.746z M49.117,85.417c4.234,7.47,11.816,11.576,21.05,11.576s16.813-4.105,21.05-11.576
			H49.117z"/>
		<g>
			<path style="fill:#DCE7BD;" d="M52.699,61.483c-1.402,0.534-2.543,1.493-3.297,2.773c-0.861,1.464-1.096,3.172-0.656,4.807
				c0.445,1.664,1.527,3.054,3.048,3.916c3.131,1.767,7.147,0.718,8.954-2.343c0.746-1.271,1.021-2.707,0.797-4.146L52.699,61.483z"
				/>
			<path style="fill:#1A1919;" d="M55.058,75.285c-1.347,0.001-2.711-0.334-3.959-1.041c-1.856-1.051-3.18-2.752-3.728-4.791
				c-0.538-2.013-0.252-4.113,0.81-5.914c0.906-1.539,2.332-2.74,4.015-3.381c0.498-0.191,1.06,0.061,1.25,0.56
				c0.189,0.5-0.062,1.058-0.561,1.249c-1.292,0.493-2.343,1.376-3.037,2.556c-0.795,1.35-1.01,2.923-0.605,4.43
				c0.41,1.533,1.408,2.814,2.811,3.607c2.885,1.629,6.588,0.662,8.252-2.159c0.688-1.172,0.941-2.494,0.734-3.822
				c-0.082-0.528,0.277-1.022,0.807-1.105c0.525-0.08,1.023,0.28,1.105,0.807c0.276,1.774-0.062,3.538-0.979,5.102
				C60.496,73.886,57.812,75.285,55.058,75.285z"/>
			<path style="fill:#1A1919;" d="M64.838,69.003c-0.161,0-0.325-0.041-0.477-0.125L49.211,60.3
				c-0.467-0.263-0.631-0.854-0.366-1.318c0.263-0.465,0.854-0.629,1.317-0.366l15.152,8.578c0.467,0.263,0.629,0.853,0.365,1.318
				C65.504,68.827,65.176,69.003,64.838,69.003z"/>
			<circle style="fill:#1A1919;" cx="57.55" cy="68.125" r="1.693"/>
		</g>
		<g>
			<path style="fill:#DCE7BD;" d="M87.625,61.483c1.402,0.534,2.543,1.493,3.296,2.773c0.862,1.464,1.095,3.172,0.657,4.807
				c-0.445,1.664-1.527,3.054-3.049,3.916c-3.131,1.767-7.148,0.718-8.953-2.343c-0.746-1.271-1.022-2.707-0.797-4.146
				L87.625,61.483z"/>
			<path style="fill:#1A1919;" d="M85.267,75.285c1.347,0.001,2.711-0.334,3.959-1.041c1.856-1.051,3.181-2.752,3.728-4.791
				c0.539-2.013,0.252-4.113-0.81-5.914c-0.905-1.539-2.332-2.74-4.015-3.381c-0.498-0.191-1.059,0.061-1.249,0.56
				c-0.19,0.5,0.062,1.058,0.56,1.249c1.293,0.493,2.344,1.376,3.037,2.556c0.795,1.35,1.01,2.923,0.605,4.43
				c-0.411,1.533-1.408,2.814-2.811,3.607c-2.885,1.629-6.588,0.662-8.252-2.159c-0.688-1.172-0.941-2.494-0.734-3.822
				c0.082-0.528-0.277-1.022-0.807-1.105c-0.525-0.08-1.023,0.28-1.105,0.807c-0.276,1.774,0.062,3.538,0.979,5.102
				C79.828,73.886,82.513,75.285,85.267,75.285z"/>
			<path style="fill:#1A1919;" d="M75.486,69.003c0.162,0,0.325-0.041,0.476-0.125L91.113,60.3c0.467-0.263,0.631-0.854,0.367-1.318
				c-0.264-0.465-0.855-0.629-1.318-0.366L75.01,67.194c-0.466,0.263-0.63,0.853-0.366,1.318
				C74.82,68.827,75.148,69.003,75.486,69.003z"/>
			<circle style="fill:#1A1919;" cx="82.775" cy="68.125" r="1.693"/>
		</g>
	</g>
</g>
</svg>
