<?xml version="1.0" encoding="iso-8859-1"?>
<!-- Generator: Adobe Illustrator 15.1.0, SVG Export Plug-In . SVG Version: 6.00 Build 0)  -->
<!DOCTYPE svg PUBLIC "-//W3C//DTD SVG 1.1//EN" "http://www.w3.org/Graphics/SVG/1.1/DTD/svg11.dtd">
<svg version="1.1" id="Layer_1" xmlns="http://www.w3.org/2000/svg" xmlns:xlink="http://www.w3.org/1999/xlink" x="0px" y="0px"
	 width="140px" height="140px" viewBox="0 0 140 140" style="enable-background:new 0 0 140 140;" xml:space="preserve">
<g>
	<path style="fill:#F2F2F2;" d="M70,130c-33.084,0-60-26.917-60-60s26.916-60,60-60s60,26.917,60,60S103.084,130,70,130z"/>
	<circle style="fill:#EE9A94;" cx="70" cy="70" r="58.064"/>
	<g>
		<path style="fill:#F8FFED;" d="M71.678,112.667h-0.663c-15.173,0-28.38-12.71-28.38-27.103V44.281
			c0-5.455,5.785-9.615,11.284-9.615h22.722c0.535,0,0.968,0.855,0.968,1.39c0,9.38,7.017,16.61,16.683,16.61h2.151
			c0.535,0,1.192,0.083,1.192,0.618v32.28C97.635,100.715,86.107,112.667,71.678,112.667z"/>
		<path style="fill:#EBF2E0;" d="M96.442,52.667h-2.151c-9.666,0-16.683-7.23-16.683-16.61c0-0.534-0.433-1.39-0.968-1.39h-7.006
			v77.887c1,0.013,1.03,0.113,1.38,0.113h0.663c14.43,0,25.957-11.952,25.957-27.103V53.285
			C97.635,52.75,96.978,52.667,96.442,52.667z"/>
		<path style="fill:#8AE3E1;" d="M59.435,68.067c-1.979,0-3.591,1.548-3.591,3.453c0,1.903,1.61,3.453,3.591,3.453
			c1.979,0,3.59-1.549,3.59-3.453C63.024,69.614,61.414,68.067,59.435,68.067z"/>
		<path style="fill:#8AE3E1;" d="M84.142,68.067c-1.979,0-3.59,1.548-3.59,3.453c0,1.903,1.61,3.453,3.59,3.453
			c1.98,0,3.591-1.549,3.591-3.453C87.732,69.614,86.122,68.067,84.142,68.067z"/>
		<path style="fill:#96998E;" d="M59.435,75.918c-2.479,0-4.498-1.973-4.498-4.398c0-2.427,2.019-4.399,4.498-4.399
			s4.497,1.973,4.497,4.399C63.932,73.945,61.914,75.918,59.435,75.918z M59.435,69.056c-1.413,0-2.563,1.104-2.563,2.463
			c0,1.358,1.148,2.463,2.563,2.463c1.412,0,2.563-1.104,2.563-2.463C61.996,70.16,60.847,69.056,59.435,69.056z"/>
		<path style="fill:#96998E;" d="M84.143,75.918c-2.479,0-4.499-1.973-4.499-4.398c0-2.427,2.02-4.399,4.499-4.399
			c2.48,0,4.498,1.973,4.498,4.399C88.641,73.945,86.623,75.918,84.143,75.918z M84.143,69.056c-1.414,0-2.563,1.104-2.563,2.463
			c0,1.358,1.148,2.463,2.563,2.463c1.413,0,2.563-1.104,2.563-2.463C86.705,70.16,85.556,69.056,84.143,69.056z"/>
		<path style="fill:#96998E;" d="M74.877,79.35c-0.535,0-0.968-0.434-0.968-0.969c0-1.357-1.149-2.463-2.563-2.463
			s-2.562,1.105-2.562,2.463c0,0.535-0.435,0.969-0.97,0.969c-0.533,0-0.967-0.434-0.967-0.969c0-2.425,2.019-4.398,4.497-4.398
			c2.479,0,4.497,1.974,4.497,4.398C75.844,78.916,75.411,79.35,74.877,79.35z"/>
		<path style="fill:#FFFFFF;" d="M51.91,84.667c0.547,10,9.056,17.878,19.437,17.878c10.382,0,18.892-7.878,19.438-17.878H51.91z"/>
		<path style="fill:#FFEBFF;" d="M76.635,39.667h9.494c4.508,0,6.506,2.806,6.506,7.191v5.809h-16V39.667z"/>
		<path style="fill:#E0EEA9;" d="M91.21,62.516c-2.219,0-4.229-1.138-5.337-2.85c-1.109,1.712-3.09,2.85-5.312,2.85
			c-2.22,0-4.188-1.138-5.296-2.85c-1.108,1.712-3.07,2.85-5.291,2.85c-2.22,0-4.175-1.138-5.285-2.85
			c-1.107,1.712-3.063,2.85-5.28,2.85c-2.221,0-4.175-1.138-5.282-2.85c-1.109,1.712-3.012,2.85-5.231,2.85
			c-3.479,0-6.261-2.743-6.261-6.115V44.282c0-5.455,5.785-9.615,11.284-9.615h22.722c0.535,0,0.968,0.855,0.968,1.39
			c0,9.38,7.017,16.61,16.683,16.61h2.151c0.535,0,1.192,0.083,1.192,0.618v3.116C97.635,59.773,94.69,62.516,91.21,62.516z"/>
		<path style="fill:#96998E;" d="M90.833,82.667H51.86c-0.534,0-0.968,0.668-0.968,1.203c0,10.979,9.176,20.03,20.453,20.03
			c11.278,0,20.454-9.108,20.454-20.088C91.801,83.275,91.368,82.667,90.833,82.667z M72.635,102.018v-2.414v-3.432
			c0-0.535-0.465-0.968-1-0.968s-1,0.433-1,0.968v3.432v2.451c-2-0.055-3-0.349-5-0.859v-1.59v-3.433c0-0.534-0.466-0.968-1-0.968
			c-0.535,0-1,0.434-1,0.968v3.433v0.854c-6-2.705-10.403-8.792-10.779-15.792h3.779v4.583c0,0.535,0.465,0.968,1,0.968
			c0.534,0,1-0.433,1-0.968v-4.583h16v4.583c0,0.535,0.465,0.968,1,0.968s1-0.433,1-0.968v-4.583h5v4.644
			c0,0.535,0.466,0.969,1,0.969c0.535,0,1-0.434,1-0.969v-4.644h6.204C89.344,93.667,81.635,101.361,72.635,102.018z"/>
		<path style="fill:#D8E6A3;" d="M96.442,52.667h-2.151c-9.666,0-16.683-7.23-16.683-16.61c0-0.534-0.433-1.39-0.968-1.39h-7.006
			v27.847c3-0.011,4.331-1.145,5.436-2.848c1.108,1.712,3.152,2.85,5.373,2.85c2.222,0,4.22-1.138,5.328-2.85
			c1.108,1.712,3.197,2.85,5.416,2.85c3.48,0,6.447-2.743,6.447-6.115v-3.116C97.635,52.75,96.978,52.667,96.442,52.667z"/>
	</g>
</g>
</svg>
