<?xml version="1.0" encoding="iso-8859-1"?>
<!-- Generator: Adobe Illustrator 15.1.0, SVG Export Plug-In . SVG Version: 6.00 Build 0)  -->
<!DOCTYPE svg PUBLIC "-//W3C//DTD SVG 1.1//EN" "http://www.w3.org/Graphics/SVG/1.1/DTD/svg11.dtd">
<svg version="1.1" id="Layer_1" xmlns="http://www.w3.org/2000/svg" xmlns:xlink="http://www.w3.org/1999/xlink" x="0px" y="0px"
	 width="140px" height="140px" viewBox="0 0 140 140" style="enable-background:new 0 0 140 140;" xml:space="preserve">
<g>
	<path style="fill:#F2F2F2;" d="M70,130c-33.084,0-60-26.917-60-60s26.916-60,60-60c33.084,0,60,26.917,60,60S103.084,130,70,130z"
		/>
	<circle style="fill:#F8F6E5;" cx="70" cy="70" r="58.064"/>
	<g>
		<path style="fill:#2E2633;" d="M42.384,103.55c-0.244,0-0.487-0.092-0.676-0.274L36.5,98.193
			c-0.187-0.182-0.292-0.432-0.292-0.691c0-0.261,0.105-0.511,0.292-0.693l44.277-43.189c0.377-0.367,0.977-0.367,1.353,0
			l5.21,5.081c0.188,0.183,0.292,0.432,0.292,0.693c0,0.261-0.104,0.51-0.292,0.693l-44.28,43.189
			C42.871,103.459,42.628,103.55,42.384,103.55z"/>
		<path style="fill:#17131A;" d="M84.586,56.015l-45.648,44.559l2.77,2.701c0.188,0.185,0.432,0.275,0.676,0.275
			s0.488-0.092,0.676-0.275l44.28-43.189c0.188-0.183,0.292-0.432,0.292-0.693c0-0.261-0.104-0.51-0.292-0.693L84.586,56.015z"/>
		<path style="fill:#555152;" d="M87.339,58.699l-5.21-5.081c-0.376-0.367-0.977-0.367-1.352,0l-7.109,6.935l6.539,6.489
			l7.132-6.958c0.188-0.183,0.292-0.432,0.292-0.693C87.631,59.13,87.527,58.882,87.339,58.699z"/>
		<polygon style="fill:#2B3D4B;" points="78.82,68.394 80.207,67.042 73.668,60.554 72.281,61.905 		"/>
		<path style="fill:#FFCF47;" d="M85.789,47.14l6.158,0.994c0.521,0.084,0.929,0.497,1.006,1.02l0.912,6.201l2.656-5.23
			c0.248-0.49,0.797-0.752,1.336-0.635l5.457,1.177l-4.213-4.109c-0.383-0.374-0.476-0.954-0.229-1.428l2.912-5.569l-5.762,2.864
			c-0.462,0.229-1.021,0.143-1.386-0.218l-4.312-4.208l1.201,5.398c0.123,0.552-0.154,1.117-0.666,1.358L85.789,47.14z"/>
		<path style="fill:#EE514A;" d="M93.488,57.728c-0.051,0-0.104-0.004-0.154-0.012c-0.416-0.068-0.74-0.398-0.803-0.815
			l-1.068-7.263l-7.311-1.181c-0.42-0.068-0.746-0.401-0.805-0.82c-0.061-0.421,0.163-0.831,0.547-1.011l6.186-2.908l-1.498-6.73
			c-0.092-0.418,0.101-0.847,0.476-1.056c0.371-0.209,0.839-0.146,1.146,0.153l5.279,5.155l6.658-3.309
			c0.374-0.186,0.828-0.11,1.122,0.189c0.294,0.3,0.36,0.754,0.166,1.126l-3.373,6.453l5.257,5.129
			c0.309,0.301,0.381,0.77,0.178,1.15c-0.205,0.38-0.633,0.584-1.058,0.489l-6.917-1.492L94.353,57.2
			C94.184,57.527,93.849,57.728,93.488,57.728z M87.551,47.046l4.92,0.795c0.417,0.067,0.742,0.397,0.805,0.814l0.729,4.955
			l2.122-4.179c0.198-0.391,0.638-0.601,1.067-0.507l4.36,0.94l-3.366-3.284c-0.307-0.299-0.38-0.763-0.183-1.141l2.327-4.45
			l-4.604,2.288c-0.368,0.184-0.813,0.115-1.106-0.174l-3.443-3.362l0.959,4.313c0.1,0.441-0.123,0.894-0.531,1.086L87.551,47.046z"
			/>
		<path style="fill:#403D3E;" d="M87.339,58.699l-2.753-2.685l-7.811,7.624l3.432,3.404l7.132-6.958
			c0.188-0.183,0.292-0.432,0.292-0.693C87.631,59.13,87.527,58.882,87.339,58.699z"/>
	</g>
</g>
</svg>
