<?xml version="1.0" encoding="iso-8859-1"?>
<!-- Generator: Adobe Illustrator 15.1.0, SVG Export Plug-In . SVG Version: 6.00 Build 0)  -->
<!DOCTYPE svg PUBLIC "-//W3C//DTD SVG 1.1//EN" "http://www.w3.org/Graphics/SVG/1.1/DTD/svg11.dtd">
<svg version="1.1" id="Layer_1" xmlns="http://www.w3.org/2000/svg" xmlns:xlink="http://www.w3.org/1999/xlink" x="0px" y="0px"
	 width="140px" height="140px" viewBox="0 0 140 140" style="enable-background:new 0 0 140 140;" xml:space="preserve">
<g>
	<path style="fill:#F2F2F2;" d="M70,130c-33.084,0-60-26.916-60-60s26.916-60,60-60s60,26.916,60,60S103.084,130,70,130z"/>
	<circle style="fill:#78642F;" cx="70" cy="70" r="58.064"/>
	<g>
		<path style="fill:#018F64;" d="M70.38,46.284c-0.535,0-0.968-0.646-0.968-1.184c0-3.314,3.627-8.435,11.414-8.435h1.754
			c0.535,0,0.969,0.465,0.969,1s-0.434,1-0.969,1h-1.754c-6.467,0-9.479,3.933-9.479,6.467
			C71.348,45.669,70.914,46.284,70.38,46.284z"/>
		<path style="fill:#FF9E47;" d="M70.354,98.76c-4.367,0-8.555-1.663-12.143-4.814c-1.773,0.488-3.557,0.736-5.311,0.736
			c-11.722,0-21.258-10.174-21.258-22.679c0-12.503,9.536-22.673,21.258-22.673c1.766,0,3.551,0.245,5.311,0.731
			c3.583-3.153,7.771-4.816,12.143-4.816c4.37,0,8.559,1.663,12.143,4.816c1.761-0.486,3.546-0.731,5.312-0.731
			c11.722,0,21.257,10.17,21.257,22.673c0,12.505-9.535,22.679-21.257,22.679c-1.754,0-3.536-0.248-5.312-0.736
			C78.906,97.097,74.72,98.76,70.354,98.76z"/>
		<path style="fill:#FFB347;" d="M70.354,98.752c-11.535,0-20.923-12.028-20.923-26.813s9.388-26.813,20.923-26.813
			c11.536,0,20.924,12.027,20.924,26.813S81.89,98.752,70.354,98.752z"/>
		<g>
			<path style="fill:#E68E40;" d="M87.807,49.33c-1.766,0-3.551,0.245-5.311,0.731c-0.523-0.461-1.063-0.879-1.609-1.274
				c6.207,4.657,10.391,13.288,10.391,23.151c0,13.777-8.151,25.154-18.598,26.644c3.52-0.485,6.87-2.051,9.816-4.638
				c1.772,0.488,3.557,0.736,5.311,0.736c11.721,0,21.258-10.174,21.258-22.679C109.064,59.5,99.527,49.33,87.807,49.33z"/>
		</g>
		<path style="fill:#FFB347;" d="M70.354,98.752c-11.535,0-20.923-12.028-20.923-26.813s9.388-26.813,20.923-26.813
			c11.536,0,20.924,12.027,20.924,26.813S81.89,98.752,70.354,98.752z"/>
		<g>
			<path style="fill:#E6A140;" d="M80.91,48.804c0.117,0.088,0.233,0.178,0.352,0.266C81.146,48.979,81.027,48.894,80.91,48.804z"/>
			<path style="fill:#E6A140;" d="M73.758,98.392c-0.012,0.002-0.021,0.003-0.032,0.007c-0.329,0.066-0.661,0.127-0.995,0.177
				C73.074,98.522,73.417,98.462,73.758,98.392z"/>
			<path style="fill:#E6A140;" d="M70.635,98.752c1,0,1.445-0.063,2.221-0.176c0.34-0.048,0.604-0.112,0.94-0.179
				c1.547-0.323,3.001-0.864,4.415-1.599c0.041-0.021,0.064-0.041,0.107-0.063c0.237-0.125,0.463-0.261,0.697-0.396
				c0.063-0.036,0.122-0.071,0.186-0.107c0.219-0.133,0.434-0.271,0.648-0.412c0.073-0.049,0.146-0.097,0.221-0.146
				c0.205-0.139,0.408-0.283,0.609-0.431c0.081-0.06,0.159-0.116,0.238-0.177c0.195-0.146,0.387-0.296,0.578-0.45
				c0.082-0.067,0.164-0.136,0.246-0.204c0.187-0.154,0.369-0.313,0.549-0.473c0.085-0.076,0.168-0.152,0.251-0.229
				c0.176-0.162,0.351-0.327,0.522-0.496c0.082-0.082,0.164-0.166,0.247-0.25c0.169-0.17,0.335-0.343,0.499-0.52
				c0.082-0.088,0.161-0.179,0.241-0.269c0.162-0.18,0.321-0.359,0.479-0.546c0.076-0.091,0.151-0.186,0.228-0.277
				c0.157-0.189,0.313-0.382,0.465-0.578c0.068-0.089,0.134-0.18,0.2-0.269c0.154-0.208,0.313-0.415,0.462-0.629
				c0.042-0.06,0.081-0.121,0.122-0.182c0.502-0.727,0.973-1.486,1.41-2.278c0.078-0.139,0.156-0.275,0.232-0.417
				c0.098-0.184,0.189-0.372,0.283-0.559c0.083-0.164,0.167-0.327,0.247-0.493c0.087-0.182,0.17-0.365,0.253-0.549
				c0.081-0.18,0.163-0.356,0.241-0.537c0.078-0.183,0.151-0.366,0.228-0.551c0.078-0.188,0.153-0.377,0.228-0.566
				c0.071-0.184,0.137-0.367,0.204-0.553c0.072-0.198,0.144-0.396,0.212-0.598c0.063-0.185,0.122-0.367,0.182-0.555
				c0.064-0.206,0.13-0.413,0.19-0.621c0.056-0.188,0.107-0.373,0.16-0.563c0.06-0.213,0.115-0.428,0.171-0.645
				c0.048-0.186,0.095-0.373,0.139-0.563c0.052-0.223,0.103-0.446,0.149-0.672c0.039-0.187,0.078-0.373,0.115-0.561
				c0.045-0.232,0.086-0.467,0.127-0.7c0.03-0.185,0.063-0.37,0.094-0.558c0.035-0.241,0.068-0.485,0.102-0.73
				c0.023-0.182,0.051-0.363,0.071-0.548c0.03-0.257,0.054-0.517,0.077-0.774c0.016-0.174,0.035-0.349,0.048-0.523
				c0.022-0.291,0.038-0.585,0.052-0.879c0.008-0.146,0.02-0.289,0.025-0.436c0.017-0.442,0.025-0.887,0.025-1.334
				c0-0.556-0.019-1.105-0.043-1.654c-0.009-0.159-0.02-0.318-0.029-0.479c-0.024-0.406-0.058-0.813-0.096-1.213
				c-0.016-0.154-0.029-0.309-0.047-0.462c-0.119-1.076-0.29-2.131-0.507-3.163c-0.028-0.134-0.06-0.268-0.089-0.398
				c-0.091-0.406-0.188-0.81-0.294-1.207c-0.031-0.117-0.062-0.236-0.095-0.354c-0.282-1.022-0.611-2.017-0.986-2.979
				c-0.032-0.084-0.066-0.168-0.102-0.252c-0.168-0.42-0.342-0.832-0.524-1.237c-0.03-0.066-0.06-0.134-0.091-0.2
				c-0.439-0.951-0.924-1.866-1.448-2.738c-0.021-0.035-0.043-0.07-0.063-0.105c-0.256-0.417-0.518-0.824-0.789-1.221
				c-0.015-0.021-0.027-0.041-0.041-0.062c-0.586-0.849-1.211-1.649-1.875-2.397c-0.006-0.006-0.012-0.012-0.017-0.019
				c-1.002-1.128-1.948-2.136-3.106-3.005c-3.099-2.326-6.398-3.665-10.398-3.665v53.629H70.635z"/>
			<path style="fill:#E6A140;" d="M74.423,98.238c0.081-0.021,0.163-0.041,0.245-0.063C74.586,98.197,74.504,98.219,74.423,98.238z"
				/>
		</g>
		<path style="fill:#5C2400;" d="M76.917,79.667c-0.007,0-0.013,0-0.019,0H64.681c-0.347,0-0.666-0.18-0.839-0.479
			s-0.173-0.666,0-0.965l6.107-10.596c0.347-0.602,1.33-0.6,1.677,0.002l6.024,10.448c0.146,0.169,0.232,0.385,0.232,0.625
			C77.885,79.239,77.451,79.667,76.917,79.667z"/>
		<path style="fill:#260F00;" d="M69.791,69.565c0.41-0.602,1.58-0.602,1.992,0l6.043,8.826c-0.041-0.115-0.099-0.223-0.176-0.313
			l-6.023-10.448c-0.346-0.603-1.33-0.603-1.676,0l-6.108,10.597c-0.013,0.021-0.019,0.047-0.028,0.069L69.791,69.565z"/>
		<path style="fill:#5C2400;" d="M56.828,72.854c-0.348,0-0.666-0.185-0.84-0.484l-6.107-10.596c-0.173-0.299-0.173-0.998,0-1.297
			c0.173-0.297,0.492-0.811,0.838-0.811h12.217c0.346,0,0.665,0.514,0.838,0.811c0.174,0.299,0.174,0.834,0,1.133l-6.106,10.678
			C57.492,72.587,57.174,72.854,56.828,72.854z"/>
		<path style="fill:#260F00;" d="M63.773,60.478c-0.173-0.297-0.492-0.811-0.838-0.811H50.719c-0.346,0-0.665,0.201-0.838,0.5
			c-0.087,0.15-0.13,0.5-0.13,0.5H61c0.346,0,0.666,0.496,0.839,0.795s0.173,0.825,0,1.124l-5.677,9.921
			c0.179,0.17,0.414,0.309,0.666,0.309c0.346,0,0.664-0.166,0.838-0.467l6.107-10.748C63.947,61.301,63.947,60.776,63.773,60.478z"
			/>
		<path style="fill:#5C2400;" d="M84.752,72.854c-0.346,0-0.665-0.185-0.838-0.483l-6.109-10.597c-0.174-0.299-0.174-0.998,0-1.297
			c0.173-0.297,0.492-0.811,0.838-0.811h12.219c0.347,0,0.666,0.514,0.838,0.811c0.174,0.299,0.174,0.834,0,1.133l-6.107,10.678
			C85.418,72.587,85.099,72.854,84.752,72.854z"/>
		<path style="fill:#260F00;" d="M79.74,62.742c-0.174-0.3-0.174-0.981,0-1.28c0.172-0.299,0.492-0.795,0.838-0.795h11.25
			c0,0-0.043-0.35-0.129-0.5c-0.174-0.299-0.492-0.5-0.838-0.5h-12.22c-0.346,0-0.665,0.514-0.838,0.811
			c-0.174,0.299-0.174,0.834,0,1.135l6.108,10.676c0.174,0.3,0.492,0.525,0.839,0.525c0.252,0,0.487-0.08,0.664-0.248L79.74,62.742z
			"/>
		<path style="fill:#5C2400;" d="M70.354,87.832c-5.309,0-10.332-1.128-14.527-3.263c-0.478-0.242-0.666-0.824-0.426-1.301
			c0.243-0.479,0.822-0.666,1.303-0.425c3.926,1.996,8.646,3.052,13.65,3.052c5.073,0,10.027-1.138,13.95-3.203
			c0.474-0.248,1.06-0.066,1.308,0.406c0.25,0.473,0.067,1.058-0.406,1.307C80.947,86.647,75.814,87.832,70.354,87.832z"/>
	</g>
</g>
</svg>
