<?xml version="1.0" encoding="iso-8859-1"?>
<!-- Generator: Adobe Illustrator 15.1.0, SVG Export Plug-In . SVG Version: 6.00 Build 0)  -->
<!DOCTYPE svg PUBLIC "-//W3C//DTD SVG 1.1//EN" "http://www.w3.org/Graphics/SVG/1.1/DTD/svg11.dtd">
<svg version="1.1" id="Layer_1" xmlns="http://www.w3.org/2000/svg" xmlns:xlink="http://www.w3.org/1999/xlink" x="0px" y="0px"
	 width="140px" height="140px" viewBox="0 0 140 140" style="enable-background:new 0 0 140 140;" xml:space="preserve">
<g>
	<path style="fill:#F2F2F2;" d="M70,130c-33.084,0-60-26.916-60-60s26.916-60,60-60s60,26.916,60,60S103.084,130,70,130z"/>
	<circle style="fill:#E2574C;" cx="70" cy="70" r="58.064"/>
	<path style="fill:#333333;" d="M108.624,32.575c0.38-0.376,0.382-0.989,0.005-1.369c-0.377-0.381-0.989-0.382-1.368-0.005
		l-6.64,6.583l-58.014,3.198l-3.121-2.938c-0.39-0.366-1-0.348-1.369,0.042c-0.364,0.389-0.348,1.001,0.043,1.368l2.933,2.761
		l-3.888,33.561l-2.42,0.639c-0.518,0.136-0.825,0.666-0.689,1.183c0.115,0.435,0.507,0.722,0.936,0.722
		c0.082,0,0.166-0.011,0.248-0.032l1.764-0.466l-1.58,24.584l-4.319,4.281c-0.38,0.377-0.382,0.988-0.006,1.368
		c0.188,0.191,0.438,0.287,0.688,0.287c0.246,0,0.492-0.094,0.682-0.281l3.342-3.313c0.149,0.089,0.311,0.15,0.485,0.15
		c0.03,0,0.062-0.002,0.093-0.005l64.672-6.202l2.682,2.523c0.188,0.176,0.427,0.263,0.664,0.263c0.258,0,0.515-0.102,0.705-0.304
		c0.365-0.389,0.348-1.002-0.041-1.368l-1.908-1.796c0.06-0.125,0.1-0.26,0.1-0.407l-0.003-37.247l1.396-0.368
		c0.517-0.136,0.824-0.666,0.688-1.183c-0.137-0.517-0.672-0.825-1.182-0.688l-0.973,0.256l-1.503-18.95L108.624,32.575z
		 M98.553,39.835l-6.744,6.689L49.17,47.156l-4.615-4.344L98.553,39.835z M70.306,67.049L58.707,56.134l23.48-0.07L71.404,66.758
		L70.306,67.049z M68.099,67.63l-10.338,2.726l-0.438-12.868L68.099,67.63z M68.656,69.485L56.808,81.232l0.923-8.867L68.656,69.485
		z M70.753,70.129l10.657,10.03L58.197,82.58L70.753,70.129z M72.129,68.765l0.27-0.268l12.105-3.191l-1.623,13.579L72.129,68.765z
		 M75.148,65.772l8.678-8.606l0.746,6.121L75.148,65.772z M84.146,54.122l-27.488,0.082l-5.463-5.141l38.631-0.573L84.146,54.122z
		 M55.32,55.604l0.521,15.258l-5.411,1.427l-0.605-21.858L55.32,55.604z M55.728,72.893l-1.09,10.492l-8.124,8.059l3.801-17.122
		L55.728,72.893z M56.006,84.754l27.268-2.843l10.217,9.616L47.309,93.38L56.006,84.754z M84.633,80.534l1.883-15.758l6.428-1.695
		l1.765,26.933L84.633,80.534z M86.46,62.789l-0.894-7.349l5.908-5.86l1.303,11.544L86.46,62.789z M42.851,43.867l4.985,4.692
		l0.672,24.236l-9.292,2.45L42.851,43.867z M39.015,77.3l9.193-2.424l-4.237,19.088l-6.438,6.384L39.015,77.3z M37.792,102.814
		l7.481-7.418l50.189-2.013l3.761,3.54L37.792,102.814z M100.635,96.278l-4.225-4.319l-2.106-29.381l6.331-1.717V96.278z
		 M101.326,58.87l-6.658,1.755l-1.44-12.783l6.694-6.638L101.326,58.87z"/>
</g>
</svg>
